<svg aria-hidden="true" style="position: absolute; width: 0; height: 0; overflow: hidden;" version="1.1" xmlns="http://www.w3.org/2000/svg" xmlns:xlink="http://www.w3.org/1999/xlink">
<defs>
<symbol id="icon-archive" viewBox="0 0 32 32">
<path d="M15 16l-3.25-3.25-0.75 0.75 4.5 4.5 4.5-4.5-0.75-0.75-3.25 3.25v-11h-1v11zM20 18h6.775l-4.375-7h-5.4v-1h6l5 8v9h-25v-9l5-8h6v1h-5.4l-4.375 7h6.775v2c0 1.105 0.896 2 1.997 2h5.005c1.103 0 1.997-0.888 1.997-2v-2z"></path>
</symbol>
<symbol id="icon-delete" viewBox="0 0 32 32">
<path d="M8 26c0 1.656 1.343 3 3 3h10c1.656 0 3-1.344 3-3l2-16h-20l2 16zM19 13h2v13h-2v-13zM15 13h2v13h-2v-13zM11 13h2v13h-2v-13zM25.5 6h-6.5c0 0-0.448-2-1-2h-4c-0.553 0-1 2-1 2h-6.5c-0.829 0-1.5 0.671-1.5 1.5s0 1.5 0 1.5h22c0 0 0-0.671 0-1.5s-0.672-1.5-1.5-1.5z"></path>
</symbol>
<symbol id="icon-edit" viewBox="0 0 32 32">
<path d="M27 0c2.761 0 5 2.239 5 5 0 1.126-0.372 2.164-1 3l-2 2-7-7 2-2c0.836-0.628 1.874-1 3-1zM2 23l-2 9 9-2 18.5-18.5-7-7-18.5 18.5zM22.362 11.362l-14 14-1.724-1.724 14-14 1.724 1.724z"></path>
</symbol>
<symbol id="icon-close-solid" viewBox="0 0 20 20">
<path d="M2.93 17.070c-1.884-1.821-3.053-4.37-3.053-7.193 0-5.523 4.477-10 10-10 2.823 0 5.372 1.169 7.19 3.050l0.003 0.003c1.737 1.796 2.807 4.247 2.807 6.947 0 5.523-4.477 10-10 10-2.7 0-5.151-1.070-6.95-2.81l0.003 0.003zM11.4 10l2.83-2.83-1.41-1.41-2.82 2.83-2.83-2.83-1.41 1.41 2.83 2.83-2.83 2.83 1.41 1.41 2.83-2.83 2.83 2.83 1.41-1.41-2.83-2.83z"></path>
</symbol>
</defs>
</svg>
